<svg
					xmlns="http://www.w3.org/2000/svg"
					xmlns:xlink="http://www.w3.org/1999/xlink"
					version="1.1"
					id="Ebene_1"
					x="0px"
					y="0px"
					viewBox="0 0 100 100"
					style="enable-background: new 0 0 100 100"
					xml:space="preserve"
				>
					<style type="text/css">
						.st0 {
							fill: none;
							stroke: #6d6e71;
							stroke-width: 2;
						}
						.st1 {
							fill: none;
							stroke: #a01c43;
							stroke-width: 2;
						}
					</style>
					<g>
						<line
							class="st0"
							x1="90.4"
							y1="33.7"
							x2="10.4"
							y2="33.7"
						/>
						<circle class="st0" cx="84.5" cy="27.8" r="0.7" />
						<circle class="st0" cx="78.6" cy="27.8" r="0.7" />
						<circle class="st0" cx="72.6" cy="27.8" r="0.7" />
						<path
							class="st0"
							d="M86,78.1c2.5,0,4.4-2,4.4-4.4V26.3c0-2.5-2-4.4-4.4-4.4H14.9c-2.5,0-4.4,2-4.4,4.4v47.4c0,2.5,2,4.4,4.4,4.4   H86z"
						/>
						<path
							class="st1"
							d="M64.9,72.2c1-4.7-0.4-9.8-4-13.4c-5.8-5.8-15.2-5.8-21,0c-3.7,3.7-5,8.7-4,13.4"
						/>
						<path
							class="st0"
							d="M55.5,72.2c0.5-0.9,0.8-1.9,0.8-3c0-3.3-2.7-5.9-5.9-5.9c-3.3,0-5.9,2.7-5.9,5.9c0,1.1,0.3,2.1,0.8,3"
						/>
						<path
							class="st1"
							d="M77.7,72.2l2.4-0.6l0-4.7l-5.8-1.5c-0.3-1.6-0.7-3.2-1.3-4.8l4.3-4.2l-2.4-4.1L69.2,54   c-0.5-0.6-1.1-1.3-1.7-1.8c-0.6-0.6-1.2-1.1-1.8-1.7l1.6-5.7l-4.1-2.4L59,46.7c-1.6-0.6-3.2-1-4.8-1.3l-1.5-5.8h-4.7l-1.5,5.8   c-1.6,0.3-3.2,0.7-4.8,1.3l-4.2-4.3l-4.1,2.4l1.6,5.7c-0.6,0.5-1.3,1.1-1.8,1.7c-0.6,0.6-1.1,1.2-1.7,1.8L26,52.4l-2.4,4.1l4.3,4.2   c-0.6,1.6-1,3.2-1.3,4.8l-5.8,1.5v4.7l2.4,0.6"
						/>
					</g>
				</svg>