<svg xmlns="http://www.w3.org/2000/svg" xmlns:xlink="http://www.w3.org/1999/xlink" version="1.1" id="Ebene_1" x="0px" y="0px" viewBox="0 0 100 100" style="enable-background:new 0 0 100 100;" xml:space="preserve">
<style type="text/css">
	.st0{fill:none;stroke:#6D6E71;stroke-width:2;}
	.st1{fill:none;stroke:#A01C43;stroke-width:2;}
</style>
<g>
	<path class="st0" d="M49.9,16.9c-1.1,0-2.3,0.1-3.4,0.2l-4-7.1l-6.3,1.7l0.1,8.2c-2.1,0.9-4,2.1-5.9,3.4l-7-4.2L19,23.6l4.2,7   c-1.3,1.8-2.5,3.8-3.4,5.9l-8.2-0.1l-1.7,6.3l7.1,4c-0.1,1.1-0.2,2.3-0.2,3.4c0,1.1,0.1,2.3,0.2,3.4l-7.1,4l1.7,6.3l8.2-0.1   c0.9,2.1,2.1,4,3.4,5.9l-4.2,7l4.6,4.6l7-4.2c1.8,1.3,3.8,2.5,5.9,3.4l-0.1,8.2l6.3,1.7l4-7.1c1.1,0.1,2.3,0.2,3.4,0.2   c1.1,0,2.3-0.1,3.4-0.2l4,7.1l6.3-1.7l-0.1-8.2c2.1-0.9,4-2.1,5.9-3.4l7,4.2l4.6-4.6l-4.2-7c1.3-1.8,2.5-3.8,3.4-5.9l8.2,0.1   l1.7-6.3l-7.1-4c0.1-1.1,0.2-2.3,0.2-3.4c0-1.1-0.1-2.3-0.2-3.4l7.1-4l-1.7-6.3l-8.2,0.1c-0.9-2.1-2.1-4-3.4-5.9l4.2-7L76.3,19   l-7,4.2c-1.8-1.3-3.8-2.5-5.9-3.4l0.1-8.2L57.3,10l-4,7.1C52.2,17,51.1,16.9,49.9,16.9z"/>
	<path class="st1" d="M61.4,37.2c3,6.5,1.1,18.2-6.2,24.1c-5.4,4.4-13.1,4.2-17.2-0.6c-4.1-4.7-3-12.2,2.4-16.6   C45.8,39.6,54.5,42.3,61.4,37.2z"/>
	<path class="st0" d="M51.5,50c-7.1,1.4-13.5,6-16.8,11.7c-1.7,2.8-0.7,6.6,2,8.4c4.5,3,10.1,4.5,16.1,3.7   c11.3-1.4,20.2-10.8,21-22.2c0.9-14-10.1-25.6-23.8-25.6C37.6,25.9,26.9,35.7,26,48.1c-0.3,4.1,0.4,8,1.9,11.5"/>
</g>
</svg>